<svg width="24" height="24" viewBox="0 0 24 24" fill="none" xmlns="http://www.w3.org/2000/svg">
<g clip-path="url(#clip0_1_523)">
<path d="M4.84876 23.4334C4.75983 23.4334 4.67091 23.4059 4.59616 23.3513C4.46384 23.2551 4.39769 23.0923 4.42561 22.9312L5.75348 15.1908L0.129692 9.70966C0.0128432 9.59539 -0.0292568 9.42484 0.0210055 9.26975C0.0716973 9.11424 0.206159 9.00083 0.368116 8.9772L8.13943 7.84781L11.6153 0.805508C11.6874 0.658588 11.8369 0.565796 12.0002 0.565796C12.1638 0.565796 12.3133 0.658588 12.3851 0.805508L15.8605 7.84781L23.6322 8.9772C23.7942 9.00083 23.9282 9.11381 23.9793 9.26975C24.0296 9.42484 23.9879 9.59581 23.8707 9.70966L18.2469 15.1917L19.5743 22.9316C19.6018 23.0927 19.5356 23.2555 19.4038 23.3518C19.2714 23.4489 19.0957 23.4613 18.951 23.3844L12.0002 19.7303L5.04852 23.3844C4.9858 23.4171 4.91706 23.4334 4.84876 23.4334ZM1.35274 9.70192L6.51471 14.7337C6.61567 14.8321 6.66206 14.9747 6.63801 15.1139L5.41926 22.2185L11.8004 18.8643C11.9254 18.7981 12.0745 18.7981 12.2004 18.8643L18.5807 22.2185L17.3623 15.1139C17.3383 14.9747 17.3847 14.8325 17.4856 14.7337L22.6476 9.70192L15.5142 8.66532C15.3742 8.64513 15.2535 8.55706 15.1907 8.43033L12.0002 1.96669L8.80959 8.43076C8.74687 8.55749 8.62616 8.64556 8.48611 8.66575L1.35274 9.70192Z" fill="black"/>
</g>
<defs>
<clipPath id="clip0_1_523">
<rect width="24" height="24" fill="white"/>
</clipPath>
</defs>
</svg>
