<svg width="16" height="16" viewBox="0 0 16 16" fill="none" xmlns="http://www.w3.org/2000/svg">
<path fill-rule="evenodd" clip-rule="evenodd" d="M15.3 0.7H12.4895V15.3H15.3V0.7ZM12.4895 0H11.7895V0.7V15.3V16H12.4895H15.3H16V15.3V0.7V0H15.3H12.4895ZM9.40526 7.81102H6.59474V15.2999H9.40526V7.81102ZM6.59474 7.11102H5.89474V7.81102V15.2999V15.9999H6.59474H9.40526H10.1053V15.2999V7.81102V7.11102H9.40526H6.59474ZM0.7 4.25551H3.51053V15.3H0.7V4.25551ZM0 3.55551H0.7H3.51053H4.21053V4.25551V15.3V16H3.51053H0.7H0V15.3V4.25551V3.55551Z" fill="black"/>
</svg>
