<svg width="16" height="16" viewBox="0 0 16 16" fill="none" xmlns="http://www.w3.org/2000/svg">
<path d="M15.8596 15.184L11.9713 11.2958C13.0143 10.0967 13.6458 8.53215 13.6458 6.82217C13.6458 3.05809 10.5842 0 6.82364 0C3.05956 0 0.00146484 3.06164 0.00146484 6.82217C0.00146484 10.5827 3.06311 13.6443 6.82364 13.6443C8.53362 13.6443 10.0981 13.0129 11.2973 11.9698L15.1855 15.8581C15.2777 15.9503 15.4019 16 15.5225 16C15.6432 16 15.7673 15.9539 15.8596 15.8581C16.044 15.6736 16.044 15.3685 15.8596 15.184ZM0.955789 6.82217C0.955789 3.5867 3.58816 0.957871 6.82009 0.957871C10.0556 0.957871 12.6844 3.59024 12.6844 6.82217C12.6844 10.0541 10.0556 12.69 6.82009 12.69C3.58816 12.69 0.955789 10.0576 0.955789 6.82217Z" fill="black"/>
</svg>
