<svg width="16" height="16" viewBox="0 0 16 16" fill="none" xmlns="http://www.w3.org/2000/svg">
<g clip-path="url(#clip0_1_675)">
<path d="M15.9333 2.80006C15.8667 2.73341 15.8 2.66672 15.6667 2.66672H3L2.66666 0.933405C2.66666 0.800061 2.46666 0.666748 2.33331 0.666748H0.333313C0.133344 0.666717 0 0.800061 0 1.00006C0 1.20006 0.133344 1.33341 0.333344 1.33341H2.06669L3.66669 9.46676C3.86669 10.5334 4.86669 11.3334 5.93334 11.3334H13.6C13.8 11.3334 13.9333 11.2001 13.9333 11.0001C13.9333 10.8001 13.8 10.6667 13.6 10.6667H6C5.46666 10.6667 4.93334 10.4001 4.66666 9.93338L14.4 8.60007C14.5333 8.60007 14.6667 8.46673 14.6667 8.33341L16 3.00006C16 3.00006 16 2.86672 15.9333 2.80006ZM14.0667 8.00007L4.33331 9.26673L3.13331 3.26672H15.2L14.0667 8.00007Z" fill="black"/>
<path d="M5.66666 12C4.73334 12 4 12.7333 4 13.6667C4 14.6 4.73334 15.3333 5.66666 15.3333C6.6 15.3333 7.33331 14.6 7.33331 13.6667C7.33334 12.7333 6.6 12 5.66666 12ZM5.66666 14.6667C5.13331 14.6667 4.66666 14.2 4.66666 13.6667C4.66666 13.1333 5.13331 12.6667 5.66666 12.6667C6.2 12.6667 6.66666 13.1333 6.66666 13.6667C6.66666 14.2 6.2 14.6667 5.66666 14.6667Z" fill="black"/>
<path d="M12.3318 12C11.3985 12 10.6652 12.7333 10.6652 13.6667C10.6652 14.6 11.3985 15.3333 12.3318 15.3333C13.2652 15.3333 13.9985 14.6 13.9985 13.6667C13.9985 12.7333 13.2651 12 12.3318 12ZM12.3318 14.6667C11.7985 14.6667 11.3318 14.2 11.3318 13.6667C11.3318 13.1333 11.7985 12.6667 12.3318 12.6667C12.8652 12.6667 13.3318 13.1333 13.3318 13.6667C13.3318 14.2 12.8651 14.6667 12.3318 14.6667Z" fill="black"/>
</g>
<defs>
<clipPath id="clip0_1_675">
<rect width="16" height="16" fill="white"/>
</clipPath>
</defs>
</svg>
