<svg width="16" height="16" viewBox="0 0 16 16" fill="none" xmlns="http://www.w3.org/2000/svg">
<path d="M3.23255 15.6223C3.17326 15.6223 3.11398 15.6039 3.06415 15.5676C2.97594 15.5034 2.93183 15.3949 2.95045 15.2875L3.83569 10.1272L0.0865021 6.4731C0.00860282 6.39692 -0.0194638 6.28322 0.0140443 6.17984C0.0478389 6.07616 0.13748 6.00055 0.245451 5.9848L5.42633 5.23187L7.74355 0.537005C7.79166 0.439058 7.89133 0.377197 8.00016 0.377197C8.10927 0.377197 8.20894 0.439058 8.25676 0.537005L10.5737 5.23187L15.7549 5.9848C15.8628 6.00055 15.9522 6.07588 15.9863 6.17984C16.0198 6.28322 15.992 6.39721 15.9138 6.4731L12.1646 10.1278L13.0496 15.2878C13.0679 15.3952 13.0238 15.5037 12.9359 15.5678C12.8477 15.6326 12.7305 15.6409 12.634 15.5896L8.00016 13.1535L3.36572 15.5896C3.32391 15.6114 3.27808 15.6223 3.23255 15.6223ZM0.901867 6.46795L4.34318 9.82249C4.41049 9.88807 4.44142 9.98316 4.42538 10.0759L3.61288 14.8123L7.86698 12.5762C7.95032 12.5321 8.0497 12.5321 8.13362 12.5762L12.3871 14.8123L11.5749 10.0759C11.5589 9.98316 11.5898 9.88836 11.6571 9.82249L15.0984 6.46795L10.3429 5.77688C10.2495 5.76342 10.169 5.70471 10.1272 5.62022L8.00016 1.31113L5.8731 5.62051C5.83129 5.70499 5.75081 5.76371 5.65745 5.77717L0.901867 6.46795Z" fill="black"/>
</svg>
