<svg width="32" height="33" viewBox="0 0 32 33" fill="none" xmlns="http://www.w3.org/2000/svg">
<path d="M26.5 12.25H5.5C4.30693 12.2513 3.16311 12.7259 2.31948 13.5695C1.47585 14.4131 1.00132 15.5569 1 16.75V27.25C1.00132 28.4431 1.47585 29.5869 2.31948 30.4305C3.16311 31.2741 4.30693 31.7487 5.5 31.75H26.5C27.6931 31.7487 28.8369 31.2741 29.6805 30.4305C30.5241 29.5869 30.9987 28.4431 31 27.25V16.75C30.9987 15.5569 30.5241 14.4131 29.6805 13.5695C28.8369 12.7259 27.6931 12.2513 26.5 12.25ZM30 27.25C29.9989 28.1779 29.6299 29.0676 28.9737 29.7237C28.3176 30.3799 27.4279 30.7489 26.5 30.75H5.5C4.57207 30.7489 3.68244 30.3799 3.0263 29.7237C2.37015 29.0676 2.00106 28.1779 2 27.25V16.75C2.00106 15.8221 2.37015 14.9324 3.0263 14.2763C3.68244 13.6201 4.57207 13.2511 5.5 13.25H26.5C27.4279 13.2511 28.3176 13.6201 28.9737 14.2763C29.6299 14.9324 29.9989 15.8221 30 16.75V27.25Z" fill="black"/>
<path d="M27 25.25H24C23.6022 25.25 23.2206 25.408 22.9393 25.6893C22.658 25.9706 22.5 26.3522 22.5 26.75V27.75C22.5 28.1478 22.658 28.5294 22.9393 28.8107C23.2206 29.092 23.6022 29.25 24 29.25H27C27.3978 29.25 27.7794 29.092 28.0607 28.8107C28.342 28.5294 28.5 28.1478 28.5 27.75V26.75C28.5 26.3522 28.342 25.9706 28.0607 25.6893C27.7794 25.408 27.3978 25.25 27 25.25ZM27.5 27.75C27.5 27.8826 27.4473 28.0098 27.3536 28.1036C27.2598 28.1973 27.1326 28.25 27 28.25H24C23.8674 28.25 23.7402 28.1973 23.6464 28.1036C23.5527 28.0098 23.5 27.8826 23.5 27.75V26.75C23.5 26.6174 23.5527 26.4902 23.6464 26.3964C23.7402 26.3027 23.8674 26.25 24 26.25H27C27.1326 26.25 27.2598 26.3027 27.3536 26.3964C27.4473 26.4902 27.5 26.6174 27.5 26.75V27.75Z" fill="black"/>
<path d="M8.5 23.75C8.5 23.6174 8.44732 23.4902 8.35355 23.3964C8.25979 23.3027 8.13261 23.25 8 23.25H4.5C4.36739 23.25 4.24021 23.3027 4.14645 23.3964C4.05268 23.4902 4 23.6174 4 23.75C4 23.8826 4.05268 24.0098 4.14645 24.1036C4.24021 24.1973 4.36739 24.25 4.5 24.25H8C8.13261 24.25 8.25979 24.1973 8.35355 24.1036C8.44732 24.0098 8.5 23.8826 8.5 23.75Z" fill="black"/>
<path d="M14 23.75C14 23.6174 13.9473 23.4902 13.8536 23.3964C13.7598 23.3027 13.6326 23.25 13.5 23.25H10C9.86739 23.25 9.74021 23.3027 9.64645 23.3964C9.55268 23.4902 9.5 23.6174 9.5 23.75C9.5 23.8826 9.55268 24.0098 9.64645 24.1036C9.74021 24.1973 9.86739 24.25 10 24.25H13.5C13.6326 24.25 13.7598 24.1973 13.8536 24.1036C13.9473 24.0098 14 23.8826 14 23.75Z" fill="black"/>
<path d="M19 23.25H15.5C15.3674 23.25 15.2402 23.3027 15.1464 23.3964C15.0527 23.4902 15 23.6174 15 23.75C15 23.8826 15.0527 24.0098 15.1464 24.1036C15.2402 24.1973 15.3674 24.25 15.5 24.25H19C19.1326 24.25 19.2598 24.1973 19.3536 24.1036C19.4473 24.0098 19.5 23.8826 19.5 23.75C19.5 23.6174 19.4473 23.4902 19.3536 23.3964C19.2598 23.3027 19.1326 23.25 19 23.25Z" fill="black"/>
<path d="M25 23.75C25 23.6174 24.9473 23.4902 24.8536 23.3964C24.7598 23.3027 24.6326 23.25 24.5 23.25H21C20.8674 23.25 20.7402 23.3027 20.6464 23.3964C20.5527 23.4902 20.5 23.6174 20.5 23.75C20.5 23.8826 20.5527 24.0098 20.6464 24.1036C20.7402 24.1973 20.8674 24.25 21 24.25H24.5C24.6326 24.25 24.7598 24.1973 24.8536 24.1036C24.9473 24.0098 25 23.8826 25 23.75Z" fill="black"/>
<path d="M9.5 27.75H6C5.86739 27.75 5.74021 27.8027 5.64645 27.8964C5.55268 27.9902 5.5 28.1174 5.5 28.25C5.5 28.3826 5.55268 28.5098 5.64645 28.6036C5.74021 28.6973 5.86739 28.75 6 28.75H9.5C9.63261 28.75 9.75979 28.6973 9.85355 28.6036C9.94732 28.5098 10 28.3826 10 28.25C10 28.1174 9.94732 27.9902 9.85355 27.8964C9.75979 27.8027 9.63261 27.75 9.5 27.75Z" fill="black"/>
<path d="M16 27.75H12.5C12.3674 27.75 12.2402 27.8027 12.1464 27.8964C12.0527 27.9902 12 28.1174 12 28.25C12 28.3826 12.0527 28.5098 12.1464 28.6036C12.2402 28.6973 12.3674 28.75 12.5 28.75H16C16.1326 28.75 16.2598 28.6973 16.3536 28.6036C16.4473 28.5098 16.5 28.3826 16.5 28.25C16.5 28.1174 16.4473 27.9902 16.3536 27.8964C16.2598 27.8027 16.1326 27.75 16 27.75Z" fill="black"/>
<path d="M5 19.25H8C8.26522 19.25 8.51957 19.1446 8.70711 18.9571C8.89464 18.7696 9 18.5152 9 18.25V16.25C9 15.9848 8.89464 15.7304 8.70711 15.5429C8.51957 15.3554 8.26522 15.25 8 15.25H5C4.73478 15.25 4.48043 15.3554 4.29289 15.5429C4.10536 15.7304 4 15.9848 4 16.25V18.25C4 18.5152 4.10536 18.7696 4.29289 18.9571C4.48043 19.1446 4.73478 19.25 5 19.25ZM7 18.25V17.75H8V18.25H7ZM8 16.75H7V16.25H8V16.75ZM5 16.25H6V18.25H5V16.25Z" fill="black"/>
<path d="M25.0251 16.6894C25.1644 16.5501 25.3297 16.4396 25.5118 16.3642C25.6938 16.2888 25.8888 16.25 26.0858 16.25C26.2828 16.25 26.4779 16.2888 26.6599 16.3642C26.8419 16.4396 27.0073 16.5501 27.1466 16.6894C27.2409 16.7805 27.3672 16.8309 27.4983 16.8298C27.6294 16.8286 27.7548 16.7761 27.8475 16.6833C27.9402 16.5906 27.9928 16.4652 27.9939 16.3341C27.9951 16.203 27.9447 16.0767 27.8536 15.9824C27.3844 15.5143 26.7486 15.2515 26.0858 15.2515C25.423 15.2515 24.7873 15.5143 24.3181 15.9824C24.227 16.0767 24.1766 16.203 24.1778 16.3341C24.1789 16.4652 24.2315 16.5906 24.3242 16.6833C24.4169 16.7761 24.5423 16.8286 24.6734 16.8298C24.8045 16.8309 24.9308 16.7805 25.0251 16.6894Z" fill="black"/>
<path d="M25.025 17.3966C24.9339 17.4909 24.8835 17.6172 24.8847 17.7483C24.8858 17.8794 24.9384 18.0048 25.0311 18.0975C25.1238 18.1902 25.2492 18.2428 25.3803 18.2439C25.5114 18.2451 25.6377 18.1947 25.732 18.1036C25.7784 18.0571 25.8336 18.0202 25.8943 17.9951C25.955 17.9699 26.02 17.9569 26.0857 17.9569C26.1515 17.9569 26.2165 17.9699 26.2772 17.9951C26.3379 18.0202 26.3931 18.0571 26.4395 18.1036C26.5338 18.1947 26.6601 18.2451 26.7912 18.2439C26.9223 18.2428 27.0477 18.1902 27.1404 18.0975C27.2331 18.0048 27.2857 17.8794 27.2868 17.7483C27.288 17.6172 27.2376 17.4909 27.1465 17.3966C27.0072 17.2573 26.8418 17.1468 26.6598 17.0714C26.4778 16.996 26.2828 16.9572 26.0857 16.9572C25.8887 16.9572 25.6937 16.996 25.5117 17.0714C25.3297 17.1468 25.1643 17.2573 25.025 17.3966Z" fill="black"/>
<path d="M11 15.75H17.5C17.6326 15.75 17.7598 15.6973 17.8536 15.6036C17.9473 15.5098 18 15.3826 18 15.25C18 15.1174 17.9473 14.9902 17.8536 14.8964C17.7598 14.8027 17.6326 14.75 17.5 14.75H11C10.8674 14.75 10.7402 14.8027 10.6464 14.8964C10.5527 14.9902 10.5 15.1174 10.5 15.25C10.5 15.3826 10.5527 15.5098 10.6464 15.6036C10.7402 15.6973 10.8674 15.75 11 15.75Z" fill="black"/>
<path d="M21.5 15.25C21.5 15.1174 21.4473 14.9902 21.3536 14.8964C21.2598 14.8027 21.1326 14.75 21 14.75H19.5C19.3674 14.75 19.2402 14.8027 19.1464 14.8964C19.0527 14.9902 19 15.1174 19 15.25C19 15.3826 19.0527 15.5098 19.1464 15.6036C19.2402 15.6973 19.3674 15.75 19.5 15.75H21C21.1326 15.75 21.2598 15.6973 21.3536 15.6036C21.4473 15.5098 21.5 15.3826 21.5 15.25Z" fill="black"/>
</svg>
